# AST/ASF file generated using VICON BodyLanguage
# -----------------------------------------------
:version 1.10
:name VICON
:units
  mass 1.0
  length 0.45
  angle deg
:documentation
   .ast/.asf automatically generated from VICON data using
   VICON BodyBuilder and BodyLanguage model FoxedUp or BRILLIANT.MOD
:root
   order TX TY TZ RX RY RZ
   axis XYZ
   position 0 0 0  
   orientation 0 0 0 
:bonedata
  begin
     id 1 
     name lhipjoint
     direction 0.440178 -0.822639 0.359871 
     length 2.53113 
     axis 0 0 0  XYZ
  end
  begin
     id 2 
     name lfemur
     direction 0.34202 -0.939693 0  
     length 7.88132  
     axis 0 0 20  XYZ
    dof rx ry rz
    limits (-160.0 20.0)
           (-70.0 70.0)
           (-60.0 70.0)
  end
  begin
     id 3 
     name ltibia
     direction 0.34202 -0.939693 0   
     length 8.43783   
     axis 0 0 20   XYZ
    dof rx
    limits (-10.0 170.0)
  end
  begin
     id 4 
     name lfoot
     direction 0.0886351 -0.243523 0.965837   
     length 2.63414   
     axis -90 7.62852e-016 20   XYZ
    dof rx rz
    limits (-45.0 90.0)
           (-70.0 20.0)
  end
  begin
     id 5 
     name ltoes
     direction 1.53703e-011 -4.21717e-011 1   
     length 1.31427   
     axis -90 7.62852e-016 20   XYZ
    dof rx
    limits (-90.0 20.0)
  end
  begin
     id 6 
     name rhipjoint
     direction -0.399779 -0.839773 0.367367   
     length 2.47948  
     axis 0 0 0  XYZ 
  end
  begin
     id 7 
     name rfemur
     direction -0.34202 -0.939693 0   
     length 7.74806   
     axis 0 0 -20   XYZ
    dof rx ry rz
    limits (-160.0 20.0)
           (-70.0 70.0)
           (-70.0 60.0)
  end
  begin
     id 8 
     name rtibia
     direction -0.34202 -0.939693 0   
     length 8.74432   
     axis 0 0 -20   XYZ
    dof rx
    limits (-10.0 170.0)
 end
 begin
     id 9 
     name rfoot
     direction -0.108514 -0.298139 0.948334   
     length 2.66102  
     axis -90 -7.62852e-016 -20   XYZ
    dof rx rz
    limits (-45.0 90.0)
           (-20.0 70.0)
  end
  begin
     id 10 
     name rtoes
     direction -1.53392e-011 -4.22077e-011 1   
     length 1.31983   
     axis -90 -7.62852e-016 -20   XYZ
    dof rx
    limits (-90.0 20.0)
  end
  begin
     id 11 
     name lowerback
     direction 0.0113257 0.999866 0.0118602   
     length 2.58694   
     axis 0 0 0   XYZ
    dof rx ry rz
    limits (-20.0 45.0)
           (-30.0 30.0)
           (-30.0 30.0)
  end
  begin
     id 12 
     name upperback
     direction -0.0164747 0.995193 -0.0965375   
     length 2.52368   
     axis 0 0 0   XYZ
    dof rx ry rz
    limits (-20.0 45.0)
           (-30.0 30.0)
           (-30.0 30.0)
  end
  begin
     id 13 
     name thorax
     direction -0.0194301 0.99433 -0.104552   
     length 2.56099   
     axis 0 0 0   XYZ
    dof rx ry rz
    limits (-20.0 45.0)
           (-30.0 30.0)
           (-30.0 30.0)
  end
  begin
     id 14 
     name lowerneck
     direction 0.0148543 0.995587 -0.092657   
     length 1.71582   
     axis 0 0 0   XYZ
    dof rx ry rz
    limits (-20.0 45.0)
           (-30.0 30.0)
           (-30.0 30.0)
  end
  begin
     id 15 
     name upperneck
     direction -0.0135467 0.993656 -0.111639   
     length 1.68937   
     axis 0 0 0   XYZ
    dof rx ry rz
    limits (-20.0 45.0)
           (-30.0 30.0)
           (-30.0 30.0)
  end
  begin
     id 16
     name head
     direction -0.00615349 0.999547 -0.029448  
     length 1.7462  
     axis 0 0 0   XYZ
    dof rx ry rz
    limits (-20.0 45.0)
           (-30.0 30.0)
           (-30.0 30.0)
  end
  begin
     id 17 
     name lclavicle
     direction 0.988267 0.149885 0.0293713  
     length 4.47222  
     axis 0 0 0   XYZ
    dof ry rz
    limits (-20.0 10.0)
           (0.0 20.0)
  end
  begin
     id 18 
     name lhumerus
     direction 1 -4.48986e-011 -1.14833e-027   
     length 5.37148   
     axis 180 -30 -90   XYZ
    dof rx ry rz
    limits (-60.0 90.0)
           (-90.0 90.0)
           (-90.0 90.0)
  end
  begin
     id 19
     name lradius
     direction 0.999998 0.00170963 -0.000987055   
     length 3.94212   
     axis 180 -30 -90   XYZ
    dof rx
    limits (-10.0 170.0)
  end
  begin
     id 20
     name lwrist
     direction 0.999998 7.53149e-005 -0.00194706   
     length 1.97106   
     axis 4.65056e-015 90 90   XYZ
    dof ry
    limits (-180.0 0.0)
 end
  begin
     id 21 
     name lhand
     direction 1 -4.48973e-011 -1.31746e-026   
     length 1.17917   
     axis 8.4065e-015 90 90   XYZ
    dof rx rz
    limits (-90.0 90.0)
           (-45.0 45.0)
  end
  begin
     id 22 
     name lfingers
     direction 1 -4.49107e-011 -2.63492e-026   
     length 0.950679   
     axis 1.6813e-014 90 90   XYZ
    dof rx
    limits (0.0 90.0)
  end
  begin
     id 23
     name lthumb
     direction 0.707107 -6.35048e-011 0.707107   
     length 1.36499   
     axis -90 45 2.85299e-015   XYZ
    dof rx rz
    limits (-45.0 45.0)
           (-45.0 45.0)
  end
  begin
     id 24 
     name rclavicle
     direction -0.996699 0.0642895 -0.0495725   
     length 4.62611  
     axis 0 0 0   XYZ 
    dof ry rz
    limits (-10.0 20.0)
           (-20.0 0.0)
  end
  begin
     id 25 
     name rhumerus
     direction -1 -4.48919e-011 -2.41059e-027  
     length 5.4981   
     axis 180 30 90   XYZ
    dof rx ry rz
    limits (-90.0 60.0)
           (-90.0 90.0)
           (-90.0 90.0)
  end
  begin
     id 26 
     name rradius
     direction -0.999999 0.00118101 -0.000681858   
     length 3.48381   
     axis 180 30 90   XYZ
    dof rx
    limits (-10.0 170.0)
  end
  begin
     id 27 
     name rwrist
     direction -0.999999 0.000321823 -0.00132288   
     length 1.7419   
     axis 4.65056e-015 -90 -90   XYZ
    dof ry
    limits (-180.0 0.0)
  end
  begin
     id 28
     name rhand
     direction -1 -4.49022e-011 -1.31746e-026   
     length 1.34932   
     axis 8.4065e-015 -90 -90   XYZ
    dof rx rz
    limits (-90.0 90.0)
           (-45.0 45.0)
  end
  begin
     id 29
     name rfingers
     direction -1 -4.49178e-011 -2.63492e-026   
     length 1.08785   
     axis 1.6813e-014 -90 -90   XYZ
    dof rx
    limits (0.0 90.0)
  end
  begin
     id 30
     name rthumb
     direction -0.707107 -6.34713e-011 0.707107   
     length 1.56195   
     axis -90 -45 -2.85299e-015   XYZ
    dof rx rz
    limits (-45.0 45.0)
           (-45.0 45.0)
  end
:hierarchy
  begin
    root lhipjoint rhipjoint lowerback
    lhipjoint lfemur
    lfemur ltibia
    ltibia lfoot
    lfoot ltoes
    rhipjoint rfemur
    rfemur rtibia
    rtibia rfoot
    rfoot rtoes
    lowerback upperback
    upperback thorax
    thorax lowerneck lclavicle rclavicle
    lowerneck upperneck
    upperneck head
    lclavicle lhumerus
    lhumerus lradius
    lradius lwrist
    lwrist lhand lthumb
    lhand lfingers
    rclavicle rhumerus
    rhumerus rradius
    rradius rwrist
    rwrist rhand rthumb
    rhand rfingers
  end

#!OML:ASF X:\für Bonn\!DataBase\2005_08_10_Bjorn_Final\c3d\bjorn.ASF
:FULLY-SPECIFIED
:DEGREES
16
root 0.268519 19.1086 2.61691 -177.233 -3.55885 179.379
lowerback -0.413842 0.850763 3.13032
upperback 6.25471 0.738641 -1.64057
thorax 6.82362 0.442759 -3.44267
lowerneck -17.9457 -1.01265 4.27582
upperneck 14.4862 -2.20213 -1.79753
head 7.32772 -1.00278 -1.53783
rclavicle -5.91384e-015 9.93923e-015
rhumerus 78.9984 2.04486 -70.1072
rradius 6.95984
rwrist 40.7646
rhand -8.52432 5.40242
rfingers 7.12502
rthumb 17.4043 -23.8384
lclavicle -5.91384e-015 9.93923e-015
lhumerus 82.94 -9.35856 59.3613
lradius 7.97782
lwrist -49.9096
lhand -14.1847 -8.04113
lfingers 7.12502
lthumb 11.951 21.5977
rfemur -13.728 -12.695 16.349
rtibia 32.9368
rfoot -19.3219 14.4814
rtoes -18.1499
lfemur -12.0344 4.09988 -18.3368
ltibia 31.0295
lfoot -18.5516 -10.7392
ltoes -12.0239
17
root 0.273776 19.0954 2.62051 -177.601 -3.59919 179.385
lowerback -0.0612837 0.846924 3.06859
upperback 6.45222 0.711682 -1.63098
thorax 6.8283 0.415183 -3.40339
lowerneck -18.0304 -0.995089 4.33274
upperneck 14.3515 -2.19318 -1.79085
head 7.29764 -0.994939 -1.54286
rclavicle -1.97294e-014 -4.77083e-015
rhumerus 78.9287 2.0112 -70.4014
rradius 7.1686
rwrist 41.0181
rhand -8.39201 5.35279
rfingers 7.12502
rthumb 17.5316 -23.8767
lclavicle -1.97294e-014 -4.77083e-015
lhumerus 83.0154 -9.42088 59.2671
lradius 7.99256
lwrist -49.1515
lhand -14.3624 -8.02811
lfingers 7.12502
lthumb 11.7797 21.6206
rfemur -13.4145 -12.392 16.3281
rtibia 33.1374
rfoot -19.5628 14.1075
rtoes -18.1313
lfemur -11.7128 3.48681 -18.3572
ltibia 31.1895
lfoot -18.5839 -10.0919
ltoes -12.1287
18
root 0.278915 19.0826 2.62496 -177.926 -3.61443 179.445
lowerback 0.256301 0.864108 3.06747
upperback 6.63524 0.710863 -1.61385
thorax 6.84154 0.404402 -3.38842
lowerneck -18.1078 -0.993944 4.41857
upperneck 14.2049 -2.21054 -1.80258
head 7.26097 -1.00017 -1.56132
rclavicle -7.05686e-015 1.59028e-015
rhumerus 78.9322 1.89847 -70.6788
rradius 7.32136
rwrist 41.2955
rhand -8.20933 5.35218
rfingers 7.12502
rthumb 17.7074 -23.8615
lclavicle -7.05686e-015 1.59028e-015
lhumerus 82.9778 -9.57229 59.1798
lradius 8.26935
lwrist -48.269
lhand -14.3714 -7.98284
lfingers 7.12502
lthumb 11.7709 21.6664
rfemur -13.1702 -12.0298 16.3883
rtibia 33.3627
rfoot -19.8124 13.6921
rtoes -18.0085
lfemur -11.4752 2.96053 -18.3263
ltibia 31.4028
lfoot -18.6041 -9.50161
ltoes -12.1967
19
root 0.283344 19.0692 2.62983 -178.2 -3.63498 179.468
lowerback 0.538173 0.871025 3.00343
upperback 6.80215 0.698258 -1.57333
thorax 6.85514 0.383853 -3.31377
lowerneck -18.1755 -0.990039 4.47007
upperneck 14.0572 -2.20022 -1.89372
head 7.22239 -1.00154 -1.59706
rclavicle 4.62174e-015 -2.78299e-015
rhumerus 78.993 1.81117 -70.9036
rradius 7.44421
rwrist 41.6835
rhand -8.03739 5.37326
rfingers 7.12502
rthumb 17.8729 -23.8255
lclavicle 4.62174e-015 -2.78299e-015
lhumerus 82.8549 -9.72586 59.1501
lradius 8.66481
lwrist -47.2788
lhand -13.9928 -8.03724
lfingers 7.12502
lthumb 12.1361 21.5908
rfemur -13.0095 -11.7544 16.4103
rtibia 33.6302
rfoot -20.0391 13.3507
rtoes -17.9515
lfemur -11.3324 2.49559 -18.3446
ltibia 31.6822
lfoot -18.5754 -9.0013
ltoes -11.8787
20
root 0.288053 19.0541 2.6348 -178.452 -3.62735 179.49
lowerback 0.806037 0.886411 2.91559
upperback 6.97547 0.694688 -1.5128
thorax 6.88367 0.365343 -3.20423
lowerneck -18.2294 -0.977429 4.5654
upperneck 13.8462 -2.17223 -2.07249
head 7.15967 -1.00085 -1.66561
rclavicle 1.56046e-014 6.95746e-015
rhumerus 79.0516 1.74573 -71.1045
rradius 7.59219
rwrist 41.879
rhand -7.91862 5.40816
rfingers 7.12502
rthumb 17.9871 -23.7801
lclavicle 1.56046e-014 6.95746e-015
lhumerus 82.7567 -9.84324 59.1449
lradius 9.04019
lwrist -46.2337
lhand -13.4201 -8.08803
lfingers 7.12502
lthumb 12.6882 21.5065
rfemur -12.9067 -11.5137 16.4359
rtibia 33.9484
rfoot -20.2699 13.0813
rtoes -17.7762
lfemur -11.2621 2.11249 -18.3669
ltibia 32.046
lfoot -18.5394 -8.53844
ltoes -11.5437
21
root 0.29351 19.0363 2.64275 -178.648 -3.6488 179.512
lowerback 1.07313 0.891359 2.85914
upperback 7.11156 0.681713 -1.48833
thorax 6.87346 0.345566 -3.15041
lowerneck -18.2988 -0.973489 4.67721
upperneck 13.6823 -2.17016 -2.21245
head 7.11458 -1.00798 -1.72775
rclavicle -1.94312e-014 5.1684e-015
rhumerus 79.0615 1.65957 -71.3594
rradius 7.68987
rwrist 41.7505
rhand -8.0394 5.48386
rfingers 7.12502
rthumb 17.8709 -23.715
lclavicle -1.94312e-014 5.1684e-015
lhumerus 82.7106 -9.97098 59.084
lradius 9.25611
lwrist -45.5751
lhand -13.1729 -8.10409
lfingers 7.12502
lthumb 12.9265 21.4755
rfemur -12.9115 -11.2749 16.4824
rtibia 34.3403
rfoot -20.4971 12.7958
rtoes -17.4051
lfemur -11.3152 1.75231 -18.3862
ltibia 32.5102
lfoot -18.5092 -8.10006
ltoes -11.0586
22
root 0.298746 19.0172 2.65281 -178.817 -3.67951 179.533
lowerback 1.33463 0.893875 2.82552
upperback 7.2463 0.664918 -1.48157
thorax 6.86586 0.32567 -3.1282
lowerneck -18.3627 -0.955145 4.77303
upperneck 13.471 -2.15587 -2.28737
head 7.05468 -1.00462 -1.7639
rclavicle -8.44835e-016 -7.95139e-015
rhumerus 79.0668 1.5785 -71.6442
rradius 7.82964
rwrist 41.7582
rhand -8.14264 5.52078
rfingers 7.12502
rthumb 17.7716 -23.6871
lclavicle -8.44835e-016 -7.95139e-015
lhumerus 82.6909 -10.0647 58.9862
lradius 9.35469
lwrist -45.3211
lhand -13.3503 -8.00574
lfingers 7.12502
lthumb 12.7556 21.5846
rfemur -12.9991 -11.0335 16.5334
rtibia 34.8129
rfoot -20.7622 12.5252
rtoes -17.0656
lfemur -11.4775 1.49761 -18.4076
ltibia 33.0952
lfoot -18.5349 -7.68597
ltoes -10.854
23
root 0.303509 18.993 2.66398 -178.965 -3.70847 179.537
lowerback 1.60847 0.894544 2.77068
upperback 7.36331 0.647892 -1.47684
thorax 6.83163 0.304295 -3.09598
lowerneck -18.429 -0.94744 4.82537
upperneck 13.2909 -2.15612 -2.30475
head 7.00613 -1.00514 -1.77625
rclavicle 1.98785e-016 6.36111e-015
rhumerus 79.0455 1.49955 -71.9241
rradius 7.99242
rwrist 41.8026
rhand -8.22037 5.59433
rfingers 7.12502
rthumb 17.6968 -23.6204
lclavicle 1.98785e-016 6.36111e-015
lhumerus 82.6744 -10.1642 58.8966
lradius 9.42688
lwrist -45.0555
lhand -13.5223 -7.89949
lfingers 7.12502
lthumb 12.5897 21.7011
rfemur -13.173 -10.8864 16.5635
rtibia 35.3891
rfoot -21.0666 12.2979
rtoes -16.9938
lfemur -11.7406 1.28317 -18.4486
ltibia 33.8127
lfoot -18.5739 -7.29824
ltoes -10.5481
24
root 0.308635 18.9649 2.67617 -179.062 -3.70727 179.521
lowerback 1.85562 0.910892 2.71247
upperback 7.46866 0.653709 -1.48997
thorax 6.80236 0.295262 -3.07937
lowerneck -18.5462 -0.945742 4.83933
upperneck 13.1374 -2.16247 -2.29362
head 6.97534 -1.00781 -1.77471
rclavicle 6.36111e-015 -2.10712e-014
rhumerus 79.0012 1.39212 -72.2127
rradius 8.17263
rwrist 41.9388
rhand -8.29963 5.65191
rfingers 7.12502
rthumb 17.6205 -23.5696
lclavicle 6.36111e-015 -2.10712e-014
lhumerus 82.6596 -10.2879 58.7959
lradius 9.50308
lwrist -44.791
lhand -13.7606 -7.77812
lfingers 7.12502
lthumb 12.3599 21.8365
rfemur -13.4756 -10.7302 16.5841
rtibia 36.0774
rfoot -21.3831 12.0966
rtoes -16.7435
lfemur -12.1346 1.12795 -18.5129
ltibia 34.6823
lfoot -18.6869 -6.91347
ltoes -10.3094
25
root 0.313619 18.932 2.69 -179.129 -3.6958 179.506
lowerback 2.10601 0.930042 2.65619
upperback 7.56442 0.663847 -1.50165
thorax 6.76134 0.288468 -3.06211
lowerneck -18.7003 -0.939455 4.86533
upperneck 12.9923 -2.16727 -2.28685
head 6.9533 -1.00965 -1.77693
rclavicle -5.71506e-015 -1.39149e-015
rhumerus 78.985 1.28905 -72.4968
rradius 8.30442
rwrist 42.1385
rhand -8.41812 5.69891
rfingers 7.12502
rthumb 17.5065 -23.5328
lclavicle -5.71506e-015 -1.39149e-015
lhumerus 82.6474 -10.3927 58.6955
lradius 9.588
lwrist -44.5104
lhand -13.9685 -7.66242
lfingers 7.12502
lthumb 12.1595 21.9642
rfemur -13.88 -10.5748 16.6092
rtibia 36.8874
rfoot -21.7771 11.8998
rtoes -16.7641
lfemur -12.6535 1.09089 -18.5779
ltibia 35.7009
lfoot -18.8576 -6.57323
ltoes -10.354
26
root 0.318144 18.8912 2.706 -179.186 -3.67321 179.489
lowerback 2.37485 0.93945 2.57559
upperback 7.65313 0.660359 -1.48699
thorax 6.69998 0.272153 -3.00405
lowerneck -18.8475 -0.935553 4.79185
upperneck 12.8305 -2.15833 -2.22536
head 6.92692 -1.00513 -1.74345
rclavicle 1.78906e-015 3.18055e-015
rhumerus 78.9862 1.22155 -72.7472
rradius 8.43391
rwrist 42.4208
rhand -8.54724 5.78516
rfingers 7.12502
rthumb 17.3822 -23.4576
lclavicle 1.78906e-015 3.18055e-015
lhumerus 82.6062 -10.4546 58.6308
lradius 9.66534
lwrist -44.3401
lhand -14.222 -7.56196
lfingers 7.12502
lthumb 11.915 22.079
rfemur -14.3721 -10.4924 16.6271
rtibia 37.8123
rfoot -22.1698 11.7596
rtoes -16.8106
lfemur -13.2669 1.03356 -18.6473
ltibia 36.8757
lfoot -19.079 -6.19572
ltoes -10.4269
27
root 0.322478 18.8449 2.72366 -179.253 -3.63169 179.473
lowerback 2.68888 0.961136 2.5206
upperback 7.73808 0.672762 -1.48687
thorax 6.61095 0.264732 -2.97536
lowerneck -18.9588 -0.941254 4.71207
upperneck 12.6218 -2.1637 -2.13635
head 6.87906 -1.006 -1.70056
rclavicle -6.36111e-015 0
rhumerus 78.9808 1.1292 -73.0073
rradius 8.52858
rwrist 42.7232
rhand -8.70768 5.88409
rfingers 7.12502
rthumb 17.2278 -23.3722
lclavicle -6.36111e-015 0
lhumerus 82.5813 -10.5369 58.5534
lradius 9.75859
lwrist -44.1682
lhand -14.4617 -7.46168
lfingers 7.12502
lthumb 11.6839 22.1925
rfemur -14.9267 -10.4319 16.6398
rtibia 38.8477
rfoot -22.6246 11.6653
rtoes -17.0122
lfemur -13.9492 0.995382 -18.717
ltibia 38.1893
lfoot -19.3515 -5.83814
ltoes -10.3724
28
root 0.326171 18.7916 2.74426 -179.312 -3.57296 179.459
lowerback 3.0577 0.977003 2.46466
upperback 7.79083 0.68082 -1.48547
thorax 6.45556 0.254783 -2.94487
lowerneck -19.0651 -0.939678 4.65794
upperneck 12.4556 -2.15804 -2.09586
head 6.84378 -1.00439 -1.67703
rclavicle -6.70898e-015 -2.18663e-015
rhumerus 78.9746 1.05174 -73.2669
rradius 8.57195
rwrist 43.0411
rhand -8.90465 5.99295
rfingers 7.12502
rthumb 17.0382 -23.2799
lclavicle -6.70898e-015 -2.18663e-015
lhumerus 82.5375 -10.6005 58.4769
lradius 9.82594
lwrist -44.0311
lhand -14.612 -7.36048
lfingers 7.12502
lthumb 11.5389 22.3019
rfemur -15.5519 -10.3589 16.655
rtibia 39.9809
rfoot -23.0493 11.5976
rtoes -17.0008
lfemur -14.7199 0.983772 -18.7908
ltibia 39.6365
lfoot -19.6561 -5.42705
ltoes -10.5747
29
root 0.330048 18.7313 2.76652 -179.353 -3.51437 179.46
lowerback 3.41716 0.990227 2.42854
upperback 7.86559 0.68065 -1.47429
thorax 6.32948 0.240976 -2.91584
lowerneck -19.3525 -0.937629 4.58215
upperneck 12.3981 -2.15149 -2.07715
head 6.87372 -1.00427 -1.66045
rclavicle 6.75868e-015 -4.57205e-015
rhumerus 79.0564 0.963952 -73.5125
rradius 8.55754
rwrist 43.3882
rhand -9.11955 6.15006
rfingers 7.12502
rthumb 16.8314 -23.1405
lclavicle 6.75868e-015 -4.57205e-015
lhumerus 82.5586 -10.6074 58.4004
lradius 9.88129
lwrist -43.9371
lhand -14.6292 -7.33146
lfingers 7.12502
lthumb 11.5224 22.3318
rfemur -16.2588 -10.3176 16.6897
rtibia 41.2048
rfoot -23.5216 11.5584
rtoes -16.9544
lfemur -15.5795 1.03123 -18.8459
ltibia 41.2013
lfoot -20.0147 -5.06929
ltoes -10.7304
30
root 0.333191 18.6662 2.78992 -179.364 -3.40783 179.464
lowerback 3.79163 1.01265 2.39261
upperback 7.90145 0.698131 -1.46435
thorax 6.15451 0.236975 -2.88751
lowerneck -19.3479 -0.934069 4.56161
upperneck 12.1936 -2.13597 -2.10308
head 6.80665 -1.00291 -1.66128
rclavicle -1.13804e-014 1.96797e-014
rhumerus 79.1119 0.884061 -73.7573
rradius 8.51509
rwrist 43.6996
rhand -9.34864 6.27577
rfingers 7.12502
rthumb 16.6108 -23.0334
lclavicle -1.13804e-014 1.96797e-014
lhumerus 82.5967 -10.5927 58.3234
lradius 9.85844
lwrist -43.836
lhand -14.5425 -7.38933
lfingers 7.12502
lthumb 11.606 22.2693
rfemur -17.053 -10.2635 16.7236
rtibia 42.509
rfoot -23.9581 11.5993
rtoes -16.8374
lfemur -16.531 1.11149 -18.9031
ltibia 42.8722
lfoot -20.4004 -4.75694
ltoes -10.762
